# xmcd CD database file
#
# Track frame offsets:
#	150
#	15857
#	37371
#	57618
#	76057
#	95797
#	114026
#	132978
#	156358
#	175870
#	194952
#
# Disc length: 2930 seconds
#
# Revision: 0
# Processed by: cddbd v1.5.2PL0 Copyright (c) Steve Scherf et al.
# Submitted via: CDex 1.51
#
DISCID=950b700b
DTITLE=Kenny Chesney - Just Who I Am: Poets and Pirates
DYEAR=2007
DGENRE=Country
TTITLE0=Never Wanted Nothing More
TTITLE1=Don't Blink
TTITLE2=Shiftwork
TTITLE3=Just Not Today
TTITLE4=Wife And Kids
TTITLE5=Got A Little Crazy
TTITLE6=Better As A Memory
TTITLE7=Dancin' For The Groceries
TTITLE8=Wild Ride
TTITLE9=Scare Me
TTITLE10=Demons
EXTD=YEAR: 2007
EXTT0=
EXTT1=
EXTT2=
EXTT3=
EXTT4=
EXTT5=
EXTT6=
EXTT7=
EXTT8=
EXTT9=
EXTT10=
PLAYORDER=
